<?xml version="1.0" standalone="no"?>
<!DOCTYPE svg PUBLIC "-//W3C//DTD SVG 20010904//EN"
 "http://www.w3.org/TR/2001/REC-SVG-20010904/DTD/svg10.dtd">
<svg version="1.0" xmlns="http://www.w3.org/2000/svg"
 width="300.000000pt" height="237.000000pt" viewBox="0 0 300.000000 237.000000"
 preserveAspectRatio="xMidYMid meet">
<metadata>
Created by potrace 1.10, written by Peter Selinger 2001-2011
</metadata>
<g transform="translate(0.000000,237.000000) scale(0.100000,-0.100000)"
fill="#000000" stroke="none">
<path d="M1179 2096 c-99 -35 -163 -108 -175 -198 l-7 -48 -150 0 c-177 0
-212 -9 -277 -67 -82 -74 -85 -88 -85 -448 l0 -310 27 -51 c49 -94 145 -148
249 -143 l51 3 -2 -171 c-1 -145 2 -173 15 -187 9 -9 22 -16 28 -16 7 0 95 83
197 185 l185 185 210 0 c241 1 257 4 349 73 7 6 44 -25 106 -87 146 -150 163
-138 158 109 l-3 163 75 4 c114 7 181 49 229 145 20 40 21 57 21 361 l0 318
-26 52 c-14 29 -42 65 -62 82 -72 59 -79 60 -601 60 -363 -1 -485 -4 -512 -14z
m1002 -77 c19 -7 47 -23 62 -38 57 -52 57 -55 57 -383 0 -295 -1 -304 -23
-342 -35 -62 -91 -86 -198 -86 -51 0 -91 -4 -94 -11 -4 -5 -6 -75 -6 -155 1
-79 0 -144 -2 -144 -2 0 -73 70 -157 155 l-154 155 -222 0 c-133 0 -234 4
-251 11 -38 14 -83 57 -99 96 -18 41 -20 595 -3 640 15 40 48 73 94 94 37 17
74 19 501 19 318 0 472 -4 495 -11z m-1141 -209 c0 -33 -11 -38 -30 -15 -10
12 -10 18 0 30 19 23 30 18 30 -15z m-40 -277 c1 -256 5 -284 54 -348 15 -19
48 -47 74 -62 l47 -28 227 -3 226 -3 59 -60 c54 -53 58 -60 43 -74 -43 -39
-83 -45 -307 -45 l-218 0 -155 -155 -155 -155 -5 152 -5 153 -101 6 c-117 6
-162 27 -194 90 -19 36 -20 60 -20 346 l0 308 26 39 c43 63 85 76 257 76 l147
0 0 -237z m808 -585 c-24 -15 -38 -9 -34 15 3 12 5 24 5 26 1 2 10 -4 21 -14
16 -14 17 -20 8 -27z m198 -166 c-4 -3 -17 5 -31 18 l-25 24 27 18 28 18 3
-36 c2 -20 1 -39 -2 -42z m-1112 -196 l26 -13 -25 -27 c-30 -33 -45 -26 -45
20 0 38 6 40 44 20z"/>
</g>
</svg>
